<svg xmlns="http://www.w3.org/2000/svg" width="512" height="512" viewBox="0 0 512 512">
  <defs>
    <linearGradient id="bg" x1="0" y1="0" x2="1" y2="1">
      <stop offset="0%" stop-color="#f05a28"/>
      <stop offset="100%" stop-color="#e04520"/>
    </linearGradient>
  </defs>
  <rect width="512" height="512" rx="112" fill="url(#bg)"/>
  <rect x="80" y="140" width="352" height="280" rx="36" fill="#fff"/>
  <rect x="80" y="100" width="352" height="80" rx="36" fill="#fff" opacity=".15"/>
  <rect x="155" y="70" width="28" height="70" rx="14" fill="#fff"/>
  <rect x="329" y="70" width="28" height="70" rx="14" fill="#fff"/>
  <g fill="#f05a28" opacity=".18">
    <rect x="120" y="210" width="56" height="50" rx="12"/>
    <rect x="196" y="210" width="56" height="50" rx="12"/>
    <rect x="272" y="210" width="56" height="50" rx="12"/>
    <rect x="348" y="210" width="56" height="50" rx="12"/>
    <rect x="120" y="278" width="56" height="50" rx="12"/>
    <rect x="196" y="278" width="56" height="50" rx="12"/>
    <rect x="348" y="278" width="56" height="50" rx="12"/>
    <rect x="120" y="346" width="56" height="50" rx="12"/>
    <rect x="196" y="346" width="56" height="50" rx="12"/>
    <rect x="272" y="346" width="56" height="50" rx="12"/>
  </g>
  <rect x="272" y="278" width="56" height="50" rx="12" fill="#f05a28"/>
  <text x="300" y="313" text-anchor="middle" font-family="system-ui,sans-serif" font-weight="800" font-size="28" fill="#fff">2</text>
</svg>
